<svg version="1.1" xmlns="http://www.w3.org/2000/svg" xmlns:xlink="http://www.w3.org/1999/xlink" stroke-linecap="round" stroke-linejoin="round" stroke-width="0" fill-rule="evenodd" clip-rule="evenodd" id="tfNUZK8ruMYQE5vgPxoN_bottom" viewBox="118678.8 -119722.4000001 42052.40000000001 34991.1730002" width="42.052400000000006mm" height="34.9911730002mm" class="w-100 h-100"><defs><style>.tfNUZK8ruMYQE5vgPxoN_fr4 {color: #666666;}
.tfNUZK8ruMYQE5vgPxoN_cu {color: #cccccc;}
.tfNUZK8ruMYQE5vgPxoN_cf {color: #cc9933;}
.tfNUZK8ruMYQE5vgPxoN_sm {color: #004200; opacity: 0.75;}
.tfNUZK8ruMYQE5vgPxoN_ss {color: #ffffff;}
.tfNUZK8ruMYQE5vgPxoN_sp {color: #999999;}
.tfNUZK8ruMYQE5vgPxoN_out {color: #000000;}</style><circle cx="0" cy="0" r="2500" id="G7Kl2siKoRWMljlJsshP_pad-10"/><circle cx="0" cy="0" r="325" id="G7Kl2siKoRWMljlJsshP_pad-11"/><rect x="-1152" y="-602" width="2304" height="1204" rx="602" ry="602" id="G7Kl2siKoRWMljlJsshP_pad-12"/><rect x="-1002" y="-602" width="2004" height="1204" rx="602" ry="602" id="G7Kl2siKoRWMljlJsshP_pad-13"/><rect x="-850" y="-850" width="1700" height="1700" id="G7Kl2siKoRWMljlJsshP_pad-14"/><rect x="-850" y="-850" width="1700" height="1700" rx="850" ry="850" id="G7Kl2siKoRWMljlJsshP_pad-15"/><circle cx="0" cy="0" r="1250" id="G7Kl2siKoRWMljlJsshP_pad-16"/><circle cx="0" cy="0" r="2500" id="YK2GytwaJ7ZvNBYNFHYh_pad-10"/><rect x="-1050" y="-500" width="2100" height="1000" rx="500" ry="500" id="YK2GytwaJ7ZvNBYNFHYh_pad-11"/><rect x="-900" y="-500" width="1800" height="1000" rx="500" ry="500" id="YK2GytwaJ7ZvNBYNFHYh_pad-12"/><rect x="-850" y="-850" width="1700" height="1700" id="YK2GytwaJ7ZvNBYNFHYh_pad-13"/><rect x="-850" y="-850" width="1700" height="1700" rx="850" ry="850" id="YK2GytwaJ7ZvNBYNFHYh_pad-14"/><circle cx="0" cy="0" r="300" id="YK2GytwaJ7ZvNBYNFHYh_pad-15"/><circle cx="0" cy="0" r="12.8" id="ov9lRewDB-sHQoy2h0Su_pad-1"/><circle cx="0" cy="0" r="49.2" id="ov9lRewDB-sHQoy2h0Su_pad-2"/><circle cx="0" cy="0" r="5.9" id="vZB5kKfDSQHEKa7cvVjW_pad-1"/><circle cx="0" cy="0" r="10" id="vZB5kKfDSQHEKa7cvVjW_pad-2"/><circle cx="0" cy="0" r="19.7" id="vZB5kKfDSQHEKa7cvVjW_pad-4"/><circle cx="0" cy="0" r="49.2" id="vZB5kKfDSQHEKa7cvVjW_pad-5"/><g id="tfNUZK8ruMYQE5vgPxoN_bottom_soldermask"><use xlink:href="#G7Kl2siKoRWMljlJsshP_pad-10" x="2775" y="-9325"/><use xlink:href="#G7Kl2siKoRWMljlJsshP_pad-11" x="125283" y="-101284.427"/><use xlink:href="#G7Kl2siKoRWMljlJsshP_pad-11" x="125283" y="-107064.427"/><use xlink:href="#G7Kl2siKoRWMljlJsshP_pad-12" x="125783" y="-99854.427"/><use xlink:href="#G7Kl2siKoRWMljlJsshP_pad-12" x="125783" y="-108494.427"/><use xlink:href="#G7Kl2siKoRWMljlJsshP_pad-13" x="121603" y="-99854.427"/><use xlink:href="#G7Kl2siKoRWMljlJsshP_pad-13" x="121603" y="-108494.427"/><use xlink:href="#G7Kl2siKoRWMljlJsshP_pad-10" x="123101.6" y="-89154"/><use xlink:href="#G7Kl2siKoRWMljlJsshP_pad-14" x="123337" y="-94014.427"/><use xlink:href="#G7Kl2siKoRWMljlJsshP_pad-15" x="125877" y="-94014.427"/><use xlink:href="#G7Kl2siKoRWMljlJsshP_pad-15" x="128417" y="-94014.427"/><use xlink:href="#G7Kl2siKoRWMljlJsshP_pad-15" x="130957" y="-94014.427"/><use xlink:href="#G7Kl2siKoRWMljlJsshP_pad-15" x="133497" y="-94014.427"/><use xlink:href="#G7Kl2siKoRWMljlJsshP_pad-15" x="136037" y="-94014.427"/><use xlink:href="#G7Kl2siKoRWMljlJsshP_pad-14" x="136037" y="-114334.427"/><use xlink:href="#G7Kl2siKoRWMljlJsshP_pad-15" x="133497" y="-114334.427"/><use xlink:href="#G7Kl2siKoRWMljlJsshP_pad-15" x="130957" y="-114334.427"/><use xlink:href="#G7Kl2siKoRWMljlJsshP_pad-15" x="128417" y="-114334.427"/><use xlink:href="#G7Kl2siKoRWMljlJsshP_pad-15" x="125877" y="-114334.427"/><use xlink:href="#G7Kl2siKoRWMljlJsshP_pad-15" x="123337" y="-114334.427"/><use xlink:href="#G7Kl2siKoRWMljlJsshP_pad-16" x="156324.8" y="-89137.627"/><use xlink:href="#G7Kl2siKoRWMljlJsshP_pad-16" x="156308.427" y="-115299.627"/><use xlink:href="#G7Kl2siKoRWMljlJsshP_pad-10" x="2775" y="-2775"/></g><g id="tfNUZK8ruMYQE5vgPxoN_bottom_copper"><use xlink:href="#YK2GytwaJ7ZvNBYNFHYh_pad-10" x="2775" y="-9325"/><use xlink:href="#YK2GytwaJ7ZvNBYNFHYh_pad-11" x="125783" y="-99854.427"/><use xlink:href="#YK2GytwaJ7ZvNBYNFHYh_pad-11" x="125783" y="-108494.427"/><use xlink:href="#YK2GytwaJ7ZvNBYNFHYh_pad-12" x="121603" y="-99854.427"/><use xlink:href="#YK2GytwaJ7ZvNBYNFHYh_pad-12" x="121603" y="-108494.427"/><use xlink:href="#YK2GytwaJ7ZvNBYNFHYh_pad-10" x="123101.6" y="-89154"/><use xlink:href="#YK2GytwaJ7ZvNBYNFHYh_pad-13" x="123337" y="-94014.427"/><use xlink:href="#YK2GytwaJ7ZvNBYNFHYh_pad-14" x="125877" y="-94014.427"/><use xlink:href="#YK2GytwaJ7ZvNBYNFHYh_pad-14" x="128417" y="-94014.427"/><use xlink:href="#YK2GytwaJ7ZvNBYNFHYh_pad-14" x="130957" y="-94014.427"/><use xlink:href="#YK2GytwaJ7ZvNBYNFHYh_pad-14" x="133497" y="-94014.427"/><use xlink:href="#YK2GytwaJ7ZvNBYNFHYh_pad-14" x="136037" y="-94014.427"/><use xlink:href="#YK2GytwaJ7ZvNBYNFHYh_pad-13" x="136037" y="-114334.427"/><use xlink:href="#YK2GytwaJ7ZvNBYNFHYh_pad-14" x="133497" y="-114334.427"/><use xlink:href="#YK2GytwaJ7ZvNBYNFHYh_pad-14" x="130957" y="-114334.427"/><use xlink:href="#YK2GytwaJ7ZvNBYNFHYh_pad-14" x="128417" y="-114334.427"/><use xlink:href="#YK2GytwaJ7ZvNBYNFHYh_pad-14" x="125877" y="-114334.427"/><use xlink:href="#YK2GytwaJ7ZvNBYNFHYh_pad-14" x="123337" y="-114334.427"/><use xlink:href="#YK2GytwaJ7ZvNBYNFHYh_pad-10" x="2775" y="-2775"/><use xlink:href="#YK2GytwaJ7ZvNBYNFHYh_pad-15" x="146456.4" y="-91643.2"/><use xlink:href="#YK2GytwaJ7ZvNBYNFHYh_pad-15" x="145263.2" y="-103350.827"/><use xlink:href="#YK2GytwaJ7ZvNBYNFHYh_pad-15" x="146863.2" y="-105050.827"/><use xlink:href="#YK2GytwaJ7ZvNBYNFHYh_pad-15" x="146063.2" y="-102550.827"/><use xlink:href="#YK2GytwaJ7ZvNBYNFHYh_pad-15" x="146063.2" y="-104250.827"/><use xlink:href="#YK2GytwaJ7ZvNBYNFHYh_pad-15" x="136462" y="-110270.427"/><use xlink:href="#YK2GytwaJ7ZvNBYNFHYh_pad-15" x="143563.2" y="-103350.827"/><use xlink:href="#YK2GytwaJ7ZvNBYNFHYh_pad-15" x="144363.2" y="-105850.827"/><use xlink:href="#YK2GytwaJ7ZvNBYNFHYh_pad-15" x="131400.086" y="-108020.314"/><use xlink:href="#YK2GytwaJ7ZvNBYNFHYh_pad-15" x="146063.2" y="-105850.827"/><use xlink:href="#YK2GytwaJ7ZvNBYNFHYh_pad-15" x="144363.2" y="-102550.827"/><use xlink:href="#YK2GytwaJ7ZvNBYNFHYh_pad-15" x="145263.2" y="-105050.827"/><use xlink:href="#YK2GytwaJ7ZvNBYNFHYh_pad-15" x="143563.2" y="-105050.827"/><use xlink:href="#YK2GytwaJ7ZvNBYNFHYh_pad-15" x="144363.2" y="-104150.827"/><use xlink:href="#YK2GytwaJ7ZvNBYNFHYh_pad-15" x="146863.2" y="-103350.827"/><use xlink:href="#YK2GytwaJ7ZvNBYNFHYh_pad-15" x="145606" y="-115248.827"/><use xlink:href="#YK2GytwaJ7ZvNBYNFHYh_pad-15" x="133286.5" y="-107073.7"/><use xlink:href="#YK2GytwaJ7ZvNBYNFHYh_pad-15" x="140766.8" y="-95402.4"/><use xlink:href="#YK2GytwaJ7ZvNBYNFHYh_pad-15" x="149490" y="-98558.827"/><use xlink:href="#YK2GytwaJ7ZvNBYNFHYh_pad-15" x="134626.8" y="-111912.4"/><use xlink:href="#YK2GytwaJ7ZvNBYNFHYh_pad-15" x="141592.8" y="-113420.027"/><use xlink:href="#YK2GytwaJ7ZvNBYNFHYh_pad-15" x="149873.2" y="-113674.027"/><use xlink:href="#YK2GytwaJ7ZvNBYNFHYh_pad-15" x="147892" y="-113674.027"/><use xlink:href="#YK2GytwaJ7ZvNBYNFHYh_pad-15" x="139700" y="-113512.6"/><use xlink:href="#YK2GytwaJ7ZvNBYNFHYh_pad-15" x="132689.6" y="-111988.6"/><use xlink:href="#YK2GytwaJ7ZvNBYNFHYh_pad-15" x="140881.1" y="-105600.5"/><use xlink:href="#YK2GytwaJ7ZvNBYNFHYh_pad-15" x="140140" y="-109177.4"/><use xlink:href="#YK2GytwaJ7ZvNBYNFHYh_pad-15" x="139319" y="-102362"/><use xlink:href="#YK2GytwaJ7ZvNBYNFHYh_pad-15" x="135153.4" y="-98145.6"/><use xlink:href="#YK2GytwaJ7ZvNBYNFHYh_pad-15" x="144272" y="-91643.2"/><use xlink:href="#YK2GytwaJ7ZvNBYNFHYh_pad-15" x="148640.8" y="-93675.2"/><use xlink:href="#YK2GytwaJ7ZvNBYNFHYh_pad-15" x="145237.2" y="-93726"/><path d="M 134626.8 -111912.4 133900.6 -112638.6 M 130112.827 -112638.6 128417 -114334.427 M 149490 -98558.827 149466.8 -98582.027 M 140766.8 -97434.4 140766.8 -95402.4 M 147638 -107476.427 149490 -105624.427 M 140766.8 -95402.4 140614.4 -95402.4 M 133900.6 -112638.6 130112.827 -112638.6 M 133689.227 -107476.427 147638 -107476.427 M 133286.5 -107073.7 133689.227 -107476.427 M 149490 -98558.827 141891.227 -98558.827 M 149490 -105624.427 149490 -98558.827 M 141891.227 -98558.827 140766.8 -97434.4" fill="none" stroke-width="300"/><path d="M 141592.8 -113420.027 140526 -112353.227 M 135478.2 -112353.227 133497 -114334.427 M 140526 -112353.227 135478.2 -112353.227" fill="none" stroke-width="200"/><path d="M 147892 -113674.027 149873.2 -113674.027 M 138878.173 -114334.427 139700 -113512.6 M 136037 -114334.427 138878.173 -114334.427 M 133497 -98216.4 133497 -94014.427 M 140881.1 -105600.5 133497 -98216.4 M 140140 -109177.4 134265.488 -109177.4 130957 -105868.912 130957 -94014.427 M 139319 -102311.2 139319 -102362 M 135153.4 -98145.6 139319 -102311.2 M 145237.2 -93726 145237.2 -92608.4" fill="none" stroke-width="300"/><path d="M 148640.8 -93675.2 148590 -93726" fill="none" stroke-width="200"/><path d="M 145237.2 -92608.4 144272 -91643.2 M 148590 -93726 145237.2 -93726" fill="none" stroke-width="300"/><path d="M 125411.075 -93821.434 125377 -93948.601 125377 -94080.253 125411.075 -94207.42 125443.988 -94264.427 123770.012 -94264.427 123802.925 -94207.42 123837 -94080.253 123837 -93948.601 123802.925 -93821.434 123770.012 -93764.427 125443.988 -93764.427 125411.075 -93821.434"/><path d="M 152983.039 -85251.412 153028.794 -85304.216 153040 -85355.727 153040 -119097.9 153020.315 -119164.939 152967.511 -119210.694 152916 -119221.9 122752.326 -119221.9 122752.31 -119221.899 122681.873 -119221.899 122675.789 -119221.75 122341.891 -119205.349 122329.781 -119204.156 122002.127 -119155.555 121990.192 -119153.181 121668.88 -119072.699 121657.235 -119069.167 121345.347 -118957.573 121334.105 -118952.916 121034.67 -118811.296 121023.938 -118805.56 120739.816 -118635.265 120729.698 -118628.504 120463.644 -118431.188 120454.237 -118423.468 120208.806 -118201.024 120200.201 -118192.419 119977.746 -117946.978 119970.026 -117937.572 119772.702 -117671.513 119765.942 -117661.395 119637.027 -117446.315 119595.652 -117377.285 119589.917 -117366.556 119448.286 -117067.104 119443.63 -117055.861 119332.04 -116743.987 119328.513 -116732.364 119248.022 -116411.029 119245.648 -116399.094 119197.045 -116071.439 119195.852 -116059.328 119179.476 -115725.981 119179.327 -115719.897 119179.327 -114084.426 122006.364 -114084.426 122006.364 -114084.427 122903.988 -114084.427 122871.075 -114141.434 122837 -114268.601 122837 -114400.253 122871.075 -114527.42 122903.988 -114584.427 122006.364 -114584.427 122063.567 -114797.913 122063.57 -114797.919 122163.399 -115012.005 122298.894 -115205.509 122465.917 -115372.532 122659.421 -115508.027 122873.507 -115607.856 122873.516 -115607.86 123087 -115665.061 123087 -114767.439 123144.007 -114800.352 123271.174 -114834.427 123402.826 -114834.427 123529.993 -114800.352 123587 -114767.439 123587 -115665.06 123800.483 -115607.86 123800.492 -115607.856 124014.578 -115508.027 124208.082 -115372.532 124375.105 -115205.509 124505.119 -115019.832 124559.696 -114976.208 124629.195 -114969.015 124691.549 -115000.537 124708.269 -115019.832 124838.505 -115205.828 125005.599 -115372.922 125102.384 -115440.692 125199.165 -115508.459 125199.167 -115508.46 125199.17 -115508.462 125413.337 -115608.33 125641.592 -115669.49 125818.034 -115684.927 125876.999 -115690.086 125877 -115690.086 125877.001 -115690.086 125935.966 -115684.927 126112.408 -115669.49 126340.663 -115608.33 126554.83 -115508.462 126748.401 -115372.922 126915.495 -115205.828 127045.425 -115020.269 127100.002 -114976.644 127169.5 -114969.45 127231.855 -115000.973 127248.575 -115020.269 127378.281 -115205.509 127378.505 -115205.828 127545.599 -115372.922 127642.384 -115440.692 127739.165 -115508.459 127739.167 -115508.46 127739.17 -115508.462 127953.337 -115608.33 128181.592 -115669.49 128358.034 -115684.927 128416.999 -115690.086 128417 -115690.086 128417.001 -115690.086 128475.966 -115684.927 128652.408 -115669.49 128880.663 -115608.33 129094.83 -115508.462 129288.401 -115372.922 129455.495 -115205.828 129585.73 -115019.832 129640.307 -114976.208 129709.805 -114969.014 129772.16 -115000.537 129788.879 -115019.832 129918.89 -115205.505 130085.917 -115372.532 130279.421 -115508.027 130493.507 -115607.856 130493.516 -115607.86 130707 -115665.061 130707 -114767.439 130764.007 -114800.352 130891.174 -114834.427 131022.826 -114834.427 131149.993 -114800.352 131207 -114767.439 131207 -115665.06 131420.483 -115607.86 131420.492 -115607.856 131634.578 -115508.027 131828.082 -115372.532 131995.105 -115205.509 132125.119 -115019.832 132179.696 -114976.208 132249.195 -114969.015 132311.549 -115000.537 132328.269 -115019.832 132458.505 -115205.828 132625.599 -115372.922 132722.384 -115440.692 132819.165 -115508.459 132819.167 -115508.46 132819.17 -115508.462 133033.337 -115608.33 133261.592 -115669.49 133438.034 -115684.927 133496.999 -115690.086 133497 -115690.086 133497.001 -115690.086 133555.966 -115684.927 133732.408 -115669.49 133960.663 -115608.33 134174.83 -115508.462 134368.401 -115372.922 134490.329 -115250.993 134551.648 -115217.511 134621.34 -115222.495 134677.274 -115264.366 134694.189 -115295.344 134743.202 -115426.755 134743.206 -115426.762 134829.452 -115541.971 134829.455 -115541.974 134944.664 -115628.22 134944.671 -115628.224 135079.517 -115678.518 135079.516 -115678.518 135086.444 -115679.262 135139.127 -115684.927 136934.872 -115684.926 136994.483 -115678.518 137129.331 -115628.223 137244.546 -115541.973 137330.796 -115426.758 137381.091 -115291.91 137387.5 -115232.3 137387.5 -115108.927 137407.185 -115041.888 137459.989 -114996.133 137511.5 -114984.927 138942.244 -114984.927 139026.788 -114968.109 139067.917 -114959.928 139186.3 -114910.892 139211.575 -114894.004 139292.842 -114839.704 139798.224 -114334.32 139859.545 -114300.837 139872.019 -114298.783 139879.255 -114297.968 140049.522 -114238.389 140202.262 -114142.416 140329.816 -114014.862 140425.789 -113862.122 140485.368 -113691.855 140485.369 -113691.849 140505.565 -113512.603 140505.565 -113512.597 140503.266 -113492.194 140515.32 -113423.372 140562.669 -113371.993 140630.279 -113354.368 140696.685 -113376.094 140714.167 -113390.629 140762.098 -113438.56 140795.583 -113499.883 140797.637 -113512.357 140807.43 -113599.276 140867.01 -113769.548 140925.179 -113862.123 140962.984 -113922.289 141090.538 -114049.843 141243.278 -114145.816 141330.365 -114176.289 141413.545 -114205.395 141413.55 -114205.396 141592.796 -114225.592 141592.8 -114225.592 141592.804 -114225.592 141772.049 -114205.396 141772.052 -114205.395 141772.055 -114205.395 141942.322 -114145.816 142095.062 -114049.843 142222.616 -113922.289 142318.589 -113769.549 142352.015 -113674.023 147086.435 -113674.023 147086.435 -113674.03 147106.63 -113853.276 147106.631 -113853.281 147166.211 -114023.55 147262.184 -114176.289 147389.738 -114303.843 147542.478 -114399.816 147562.769 -114406.916 147712.745 -114459.395 147712.75 -114459.396 147891.996 -114479.592 147892 -114479.592 147892.004 -114479.592 148071.249 -114459.396 148071.251 -114459.395 148071.255 -114459.395 148071.258 -114459.393 148071.262 -114459.393 148221.231 -114406.916 148241.522 -114399.816 148331.096 -114343.532 148397.068 -114324.527 149368.132 -114324.527 149434.104 -114343.533 149523.677 -114399.816 149523.681 -114399.817 149693.937 -114459.393 149693.943 -114459.394 149693.945 -114459.395 149693.946 -114459.395 149693.95 -114459.396 149873.196 -114479.592 149873.2 -114479.592 149873.204 -114479.592 150052.449 -114459.396 150052.452 -114459.395 150052.455 -114459.395 150222.722 -114399.816 150375.462 -114303.843 150503.016 -114176.289 150598.989 -114023.549 150658.568 -113853.282 150658.569 -113853.276 150678.765 -113674.03 150678.765 -113674.023 150658.569 -113494.777 150658.568 -113494.772 150647.458 -113463.021 150598.989 -113324.505 150581.035 -113295.932 150503.015 -113171.764 150375.462 -113044.211 150222.723 -112948.238 150052.454 -112888.658 150052.449 -112888.657 149873.204 -112868.462 149873.196 -112868.462 149693.95 -112888.657 149693.937 -112888.66 149523.681 -112948.236 149523.677 -112948.237 149434.104 -113004.521 149368.132 -113023.527 148397.068 -113023.527 148331.096 -113004.521 148241.522 -112948.237 148241.518 -112948.236 148071.262 -112888.66 148071.249 -112888.657 147892.004 -112868.462 147891.996 -112868.462 147712.75 -112888.657 147712.745 -112888.658 147542.476 -112948.238 147389.737 -113044.211 147262.184 -113171.764 147166.211 -113324.503 147106.631 -113494.772 147106.63 -113494.777 147086.435 -113674.023 142352.015 -113674.023 142378.168 -113599.282 142378.169 -113599.276 142398.365 -113420.03 142398.365 -113420.023 142378.169 -113240.777 142378.168 -113240.772 142350.194 -113160.826 142318.589 -113070.505 142302.067 -113044.211 142222.615 -112917.764 142095.062 -112790.211 141942.321 -112694.237 141772.049 -112634.657 141685.13 -112624.864 141620.716 -112597.797 141611.333 -112589.325 141013.59 -111991.582 141013.588 -111991.579 140894.717 -111872.708 140894.709 -111872.702 140784.97 -111809.345 140784.969 -111809.344 140765.861 -111798.313 140757.785 -111793.65 140605.057 -111752.726 140446.943 -111752.726 140439.347 -111752.726 140439.331 -111752.727 135564.869 -111752.727 135564.853 -111752.726 135557.257 -111752.726 135507.003 -111752.726 135439.964 -111733.041 135394.209 -111680.237 135389.961 -111669.681 135388.293 -111664.915 135352.589 -111562.878 135256.616 -111410.138 135129.062 -111282.584 134976.323 -111186.611 134806.054 -111127.031 134806.049 -111127.03 134626.804 -111106.835 134626.796 -111106.835 134447.55 -111127.03 134447.545 -111127.031 134277.276 -111186.611 134124.537 -111282.584 133996.984 -111410.137 133901.01 -111562.878 133841.432 -111733.144 133841.43 -111733.152 133840.615 -111740.388 133813.543 -111804.8 133805.078 -111814.175 133741.271 -111877.983 133690.958 -111928.296 133629.635 -111961.781 133559.943 -111956.797 133504.009 -111914.926 133480.056 -111854.498 133474.969 -111809.35 133474.968 -111809.348 133474.968 -111809.345 133415.389 -111639.078 133319.416 -111486.338 133191.862 -111358.784 133070.591 -111282.584 133039.123 -111262.811 132868.854 -111203.231 132868.849 -111203.23 132689.604 -111183.035 132689.596 -111183.035 132510.35 -111203.23 132510.345 -111203.231 132340.076 -111262.811 132187.337 -111358.784 132059.784 -111486.337 131963.81 -111639.078 131904.23 -111809.35 131896.498 -111877.983 131869.432 -111942.397 131811.837 -111981.952 131773.278 -111988.1 130048.756 -111988.1 129923.088 -112013.097 129923.078 -112013.1 129874.047 -112033.41 129804.708 -112062.13 129804.69 -112062.14 129698.159 -112133.321 129698.152 -112133.327 128844.762 -112986.717 128783.439 -113020.202 128724.989 -113018.811 128652.416 -112999.366 128652.412 -112999.365 128652.408 -112999.364 128652.406 -112999.363 128652.403 -112999.363 128417.001 -112978.768 128416.999 -112978.768 128181.596 -112999.363 128181.586 -112999.365 127953.344 -113060.521 127953.335 -113060.525 127739.171 -113160.391 127739.169 -113160.392 127545.597 -113295.932 127378.505 -113463.024 127248.575 -113648.585 127193.998 -113692.21 127124.5 -113699.404 127062.145 -113667.881 127045.425 -113648.585 126915.494 -113463.024 126748.402 -113295.933 126748.395 -113295.928 126554.834 -113160.394 126554.83 -113160.392 126519.03 -113143.698 126340.663 -113060.524 126340.659 -113060.523 126340.655 -113060.521 126112.413 -112999.365 126112.403 -112999.363 125877.001 -112978.768 125876.999 -112978.768 125641.596 -112999.363 125641.586 -112999.365 125413.344 -113060.521 125413.335 -113060.525 125199.171 -113160.391 125199.169 -113160.392 125005.597 -113295.932 124838.508 -113463.021 124708.269 -113649.022 124653.692 -113692.646 124584.193 -113699.839 124521.839 -113668.317 124505.119 -113649.021 124375.113 -113463.353 124375.108 -113463.347 124208.082 -113296.321 124014.578 -113160.826 123800.492 -113060.997 123800.486 -113060.994 123587 -113003.791 123587 -113901.415 123529.993 -113868.502 123402.826 -113834.427 123271.174 -113834.427 123144.007 -113868.502 123087 -113901.415 123087 -113003.791 123086.999 -113003.791 122873.513 -113060.994 122873.507 -113060.997 122659.422 -113160.826 122659.42 -113160.827 122465.926 -113296.313 122465.92 -113296.318 122298.891 -113463.347 122298.886 -113463.353 122163.4 -113656.847 122163.399 -113656.849 122063.57 -113870.934 122063.567 -113870.94 122006.364 -114084.426 119179.327 -114084.426 119179.327 -108244.427 120233.138 -108244.427 121036.012 -108244.427 121018.795 -108254.367 120962.94 -108310.222 120923.444 -108378.631 120903 -108454.931 120903 -108533.923 120923.444 -108610.223 120962.94 -108678.632 121018.795 -108734.487 121036.012 -108744.427 120233.138 -108744.427 120241.43 -108786.117 120241.43 -108786.119 120316.807 -108968.098 120316.814 -108968.111 120426.248 -109131.889 120426.251 -109131.893 120565.533 -109271.175 120565.537 -109271.178 120729.315 -109380.612 120729.328 -109380.619 120911.306 -109455.996 120911.318 -109455.999 121104.504 -109494.426 121104.508 -109494.427 121353 -109494.427 121353 -108794.427 121853 -108794.427 121853 -109494.427 122101.492 -109494.427 122101.495 -109494.426 122294.681 -109455.999 122294.693 -109455.996 122476.671 -109380.619 122476.684 -109380.612 122640.462 -109271.178 122640.466 -109271.175 122779.748 -109131.893 122779.751 -109131.889 122889.185 -108968.111 122889.192 -108968.098 122964.569 -108786.119 122964.569 -108786.117 122972.862 -108744.427 122169.988 -108744.427 122187.205 -108734.487 122243.06 -108678.632 122282.556 -108610.223 122303 -108533.923 122303 -108454.931 122282.556 -108378.631 122243.06 -108310.222 122187.205 -108254.367 122169.988 -108244.427 122972.862 -108244.427 124263.138 -108244.427 125066.012 -108244.427 125048.795 -108254.367 124992.94 -108310.222 124953.444 -108378.631 124933 -108454.931 124933 -108533.923 124953.444 -108610.223 124992.94 -108678.632 125048.795 -108734.487 125066.012 -108744.427 124263.138 -108744.427 124271.43 -108786.117 124271.43 -108786.119 124346.807 -108968.098 124346.814 -108968.111 124456.248 -109131.889 124456.251 -109131.893 124595.533 -109271.175 124595.537 -109271.178 124759.315 -109380.612 124759.328 -109380.619 124941.306 -109455.996 124941.318 -109455.999 125134.504 -109494.426 125134.508 -109494.427 125533 -109494.427 125533 -108794.427 126033 -108794.427 126033 -109494.427 126431.492 -109494.427 126431.495 -109494.426 126624.681 -109455.999 126624.693 -109455.996 126806.671 -109380.619 126806.684 -109380.612 126970.462 -109271.178 126970.466 -109271.175 127109.748 -109131.893 127109.751 -109131.889 127219.185 -108968.111 127219.192 -108968.098 127294.569 -108786.119 127294.569 -108786.117 127302.862 -108744.427 126499.988 -108744.427 126517.205 -108734.487 126573.06 -108678.632 126612.556 -108610.223 126633 -108533.923 126633 -108454.931 126612.556 -108378.631 126573.06 -108310.222 126517.205 -108254.367 126499.988 -108244.427 127302.862 -108244.427 127294.569 -108202.736 127294.569 -108202.734 127219.192 -108020.755 127219.185 -108020.742 127109.751 -107856.964 127109.748 -107856.96 126970.466 -107717.678 126970.462 -107717.675 126806.684 -107608.241 126806.671 -107608.234 126624.693 -107532.857 126624.681 -107532.854 126431.495 -107494.427 126033 -107494.427 126033 -108194.427 125533 -108194.427 125533 -107656.211 125552.685 -107589.172 125595 -107548.824 125636.365 -107524.942 125743.515 -107417.792 125819.281 -107286.562 125858.5 -107140.193 125858.5 -106988.661 125819.281 -106842.292 125743.515 -106711.062 125636.365 -106603.912 125544.484 -106550.864 125505.136 -106528.146 125431.95 -106508.536 125358.766 -106488.927 125207.234 -106488.927 125060.863 -106528.146 124929.635 -106603.912 124929.632 -106603.914 124822.487 -106711.059 124822.485 -106711.062 124746.719 -106842.29 124707.5 -106988.661 124707.5 -107140.192 124746.719 -107286.563 124786.153 -107354.864 124822.485 -107417.792 124822.486 -107417.793 124826.549 -107424.83 124824.346 -107426.101 124844.959 -107479.41 124830.923 -107547.855 124782.112 -107597.847 124768.845 -107604.293 124759.324 -107608.236 124759.315 -107608.241 124595.537 -107717.675 124595.533 -107717.678 124456.251 -107856.96 124456.248 -107856.964 124346.814 -108020.742 124346.807 -108020.755 124271.43 -108202.734 124271.43 -108202.736 124263.138 -108244.427 122972.862 -108244.427 122964.569 -108202.736 122964.569 -108202.734 122889.192 -108020.755 122889.185 -108020.742 122779.751 -107856.964 122779.748 -107856.96 122640.466 -107717.678 122640.462 -107717.675 122476.684 -107608.241 122476.671 -107608.234 122294.693 -107532.857 122294.681 -107532.854 122101.495 -107494.427 121853 -107494.427 121853 -108194.427 121353 -108194.427 121353 -107494.427 121104.504 -107494.427 120911.318 -107532.854 120911.306 -107532.857 120729.328 -107608.234 120729.315 -107608.241 120565.537 -107717.675 120565.533 -107717.678 120426.251 -107856.96 120426.248 -107856.964 120316.814 -108020.742 120316.807 -108020.755 120241.43 -108202.734 120241.43 -108202.736 120233.138 -108244.427 119179.327 -108244.427 119179.327 -99604.427 120233.138 -99604.427 121036.012 -99604.427 121018.795 -99614.367 120962.94 -99670.222 120923.444 -99738.631 120903 -99814.931 120903 -99893.923 120923.444 -99970.223 120962.94 -100038.632 121018.795 -100094.487 121036.012 -100104.427 120233.138 -100104.427 120241.43 -100146.117 120241.43 -100146.119 120316.807 -100328.098 120316.814 -100328.111 120426.248 -100491.889 120426.251 -100491.893 120565.533 -100631.175 120565.537 -100631.178 120729.315 -100740.612 120729.328 -100740.619 120911.306 -100815.996 120911.318 -100815.999 121104.504 -100854.426 121104.508 -100854.427 121353 -100854.427 121353 -100154.427 121853 -100154.427 121853 -100854.427 122101.492 -100854.427 122101.495 -100854.426 122294.681 -100815.999 122294.693 -100815.996 122476.671 -100740.619 122476.684 -100740.612 122640.462 -100631.178 122640.466 -100631.175 122779.748 -100491.893 122779.751 -100491.889 122889.185 -100328.111 122889.192 -100328.098 122964.569 -100146.119 122964.569 -100146.117 122972.862 -100104.427 122169.988 -100104.427 122187.205 -100094.487 122243.06 -100038.632 122282.556 -99970.223 122303 -99893.923 122303 -99814.931 122282.556 -99738.631 122243.06 -99670.222 122187.205 -99614.367 122169.988 -99604.427 122972.862 -99604.427 124263.138 -99604.427 125066.012 -99604.427 125048.795 -99614.367 124992.94 -99670.222 124953.444 -99738.631 124933 -99814.931 124933 -99893.923 124953.444 -99970.223 124992.94 -100038.632 125048.795 -100094.487 125066.012 -100104.427 124263.138 -100104.427 124271.43 -100146.117 124271.43 -100146.119 124346.807 -100328.098 124346.814 -100328.111 124456.248 -100491.889 124456.251 -100491.893 124595.533 -100631.175 124595.537 -100631.178 124759.315 -100740.612 124759.328 -100740.619 124768.838 -100744.558 124823.243 -100788.397 124845.31 -100854.691 124828.033 -100922.39 124824.35 -100927.832 124746.719 -101062.29 124707.5 -101208.661 124707.5 -101360.192 124746.719 -101506.563 124777.522 -101559.914 124822.485 -101637.792 124929.635 -101744.942 125060.865 -101820.708 125207.234 -101859.927 125207.236 -101859.927 125358.764 -101859.927 125358.766 -101859.927 125505.135 -101820.708 125636.365 -101744.942 125743.515 -101637.792 125819.281 -101506.562 125858.5 -101360.193 125858.5 -101208.661 125819.281 -101062.292 125743.515 -100931.062 125636.365 -100823.912 125622.654 -100815.996 125594.998 -100800.028 125546.784 -100749.46 125533 -100692.642 125533 -100154.427 126033 -100154.427 126033 -100854.427 126431.492 -100854.427 126431.495 -100854.426 126624.681 -100815.999 126624.693 -100815.996 126806.671 -100740.619 126806.684 -100740.612 126970.462 -100631.178 126970.466 -100631.175 127109.748 -100491.893 127109.751 -100491.889 127219.185 -100328.111 127219.192 -100328.098 127294.569 -100146.119 127294.569 -100146.117 127302.862 -100104.427 126499.988 -100104.427 126517.205 -100094.487 126573.06 -100038.632 126612.556 -99970.223 126633 -99893.923 126633 -99814.931 126612.556 -99738.631 126573.06 -99670.222 126517.205 -99614.367 126499.988 -99604.427 127302.862 -99604.427 127294.569 -99562.736 127294.569 -99562.734 127219.192 -99380.755 127219.185 -99380.742 127109.751 -99216.964 127109.748 -99216.96 126970.466 -99077.678 126970.462 -99077.675 126806.684 -98968.241 126806.671 -98968.234 126624.693 -98892.857 126624.681 -98892.854 126431.495 -98854.427 126033 -98854.427 126033 -99554.427 125533 -99554.427 125533 -98854.427 125134.504 -98854.427 124941.318 -98892.854 124941.306 -98892.857 124759.328 -98968.234 124759.315 -98968.241 124595.537 -99077.675 124595.533 -99077.678 124456.251 -99216.96 124456.248 -99216.964 124346.814 -99380.742 124346.807 -99380.755 124271.43 -99562.734 124271.43 -99562.736 124263.138 -99604.427 122972.862 -99604.427 122964.569 -99562.736 122964.569 -99562.734 122889.192 -99380.755 122889.185 -99380.742 122779.751 -99216.964 122779.748 -99216.96 122640.466 -99077.678 122640.462 -99077.675 122476.684 -98968.241 122476.671 -98968.234 122294.693 -98892.857 122294.681 -98892.854 122101.495 -98854.427 121853 -98854.427 121853 -99554.427 121353 -99554.427 121353 -98854.427 121104.504 -98854.427 120911.318 -98892.854 120911.306 -98892.857 120729.328 -98968.234 120729.315 -98968.241 120565.537 -99077.675 120565.533 -99077.678 120426.251 -99216.96 120426.248 -99216.964 120316.814 -99380.742 120316.807 -99380.755 120241.43 -99562.734 120241.43 -99562.736 120233.138 -99604.427 119179.327 -99604.427 119179.327 -93116.582 121987 -93116.582 121987 -93764.427 122903.988 -93764.427 122871.075 -93821.434 122837 -93948.601 122837 -94080.253 122871.075 -94207.42 122903.988 -94264.427 121987 -94264.427 121987 -94912.271 121993.401 -94971.799 121993.403 -94971.806 122043.645 -95106.513 122043.649 -95106.52 122129.809 -95221.614 122129.812 -95221.617 122244.906 -95307.777 122244.913 -95307.781 122379.62 -95358.023 122379.627 -95358.025 122439.155 -95364.426 122439.172 -95364.427 123087 -95364.427 123087 -94447.439 123144.007 -94480.352 123271.174 -94514.427 123402.826 -94514.427 123529.993 -94480.352 123587 -94447.439 123587 -95364.427 124234.828 -95364.427 124234.844 -95364.426 124294.372 -95358.025 124294.379 -95358.023 124429.086 -95307.781 124429.093 -95307.777 124544.187 -95221.617 124544.19 -95221.614 124630.35 -95106.52 124630.354 -95106.513 124679.614 -94974.44 124721.485 -94918.506 124786.949 -94894.089 124855.222 -94908.94 124883.477 -94930.092 125005.917 -95052.532 125199.421 -95188.027 125413.507 -95287.856 125413.516 -95287.86 125627 -95345.061 125627 -94447.439 125684.007 -94480.352 125811.174 -94514.427 125942.826 -94514.427 126069.993 -94480.352 126127 -94447.439 126127 -95345.06 126340.483 -95287.86 126340.492 -95287.856 126554.578 -95188.027 126748.082 -95052.532 126915.105 -94885.509 127045.119 -94699.832 127099.696 -94656.208 127169.195 -94649.015 127231.549 -94680.537 127248.269 -94699.832 127378.505 -94885.828 127545.599 -95052.922 127622.135 -95106.513 127739.165 -95188.459 127739.167 -95188.46 127739.17 -95188.462 127953.337 -95288.33 127953.343 -95288.331 127953.344 -95288.332 128008.285 -95303.053 128181.592 -95349.49 128352.319 -95364.427 128416.999 -95370.086 128417 -95370.086 128417.001 -95370.086 128481.681 -95364.427 128652.408 -95349.49 128880.663 -95288.33 129094.83 -95188.462 129288.401 -95052.922 129455.495 -94885.828 129585.425 -94700.269 129640.002 -94656.644 129709.5 -94649.45 129771.855 -94680.973 129788.575 -94700.269 129918.501 -94885.823 129918.506 -94885.829 130085.597 -95052.92 130085.603 -95052.925 130253.623 -95170.574 130297.248 -95225.151 130306.5 -95272.149 130306.5 -105932.981 130306.5 -105932.983 130306.499 -105932.983 130327.608 -106039.094 130327.608 -106039.096 130331.499 -106058.656 130380.535 -106177.039 130451.723 -106283.581 130451.726 -106283.585 133850.813 -109682.672 133850.819 -109682.677 133957.362 -109753.866 134026.709 -109782.589 134075.744 -109802.901 134075.747 -109802.901 134075.748 -109802.902 134201.416 -109827.9 134201.419 -109827.9 134329.557 -109827.9 139634.932 -109827.9 139700.904 -109846.906 139790.477 -109903.189 139790.481 -109903.19 139960.737 -109962.766 139960.743 -109962.767 139960.745 -109962.768 139960.746 -109962.768 139960.75 -109962.769 140139.996 -109982.965 140140 -109982.965 140140.004 -109982.965 140319.249 -109962.769 140319.252 -109962.768 140319.255 -109962.768 140489.522 -109903.189 140642.262 -109807.216 140769.816 -109679.662 140865.789 -109526.922 140925.368 -109356.655 140934.999 -109271.178 140945.565 -109177.403 140945.565 -109177.396 140925.369 -108998.15 140925.368 -108998.145 140865.788 -108827.876 140769.815 -108675.137 140642.262 -108547.584 140489.523 -108451.611 140319.254 -108392.031 140319.249 -108392.03 140160.524 -108374.147 140144.441 -108367.389 140140.528 -108369.904 140119.476 -108374.147 139960.75 -108392.03 139960.737 -108392.033 139790.481 -108451.609 139790.477 -108451.61 139700.904 -108507.894 139634.932 -108526.9 134586.296 -108526.9 134519.257 -108507.215 134498.615 -108490.581 134346.642 -108338.608 134313.157 -108277.285 134318.141 -108207.593 134360.013 -108151.66 134425.477 -108127.243 134434.323 -108126.927 140105.593 -108126.927 140137.7 -108136.354 140153.013 -108128.787 140174.407 -108126.927 147702.071 -108126.927 147786.615 -108110.109 147827.744 -108101.928 147946.127 -108052.892 148052.669 -107981.704 149995.277 -106039.096 150066.466 -105932.553 150115.501 -105814.17 150117.357 -105804.843 150140.5 -105688.496 150140.5 -99063.894 150159.507 -98997.921 150215.788 -98908.351 150275.368 -98738.081 150275.369 -98738.076 150295.565 -98558.83 150295.565 -98558.823 150275.369 -98379.577 150275.368 -98379.572 150215.788 -98209.303 150119.815 -98056.564 149992.262 -97929.011 149839.523 -97833.038 149669.254 -97773.458 149669.249 -97773.457 149490.004 -97753.262 149489.996 -97753.262 149310.75 -97773.457 149310.737 -97773.46 149140.481 -97833.036 149140.477 -97833.037 149050.904 -97889.321 148984.932 -97908.327 142212.035 -97908.327 142144.996 -97888.642 142124.354 -97872.008 141453.619 -97201.273 141420.134 -97139.95 141417.3 -97113.592 141417.3 -95907.467 141436.307 -95841.494 141492.588 -95751.924 141552.168 -95581.654 141552.169 -95581.649 141572.365 -95402.403 141572.365 -95402.396 141552.169 -95223.15 141552.168 -95223.145 141540.032 -95188.462 141492.589 -95052.878 141396.616 -94900.138 141269.062 -94772.584 141116.323 -94676.611 140946.054 -94617.031 140946.049 -94617.03 140766.804 -94596.835 140766.796 -94596.835 140587.55 -94617.03 140587.545 -94617.031 140417.276 -94676.611 140264.537 -94772.584 140136.984 -94900.137 140041.01 -95052.878 139981.432 -95223.144 139981.431 -95223.147 139974.987 -95280.339 139973.385 -95290.642 139963.9 -95338.33 139963.9 -95371.786 139963.12 -95385.67 139961.235 -95402.398 139961.235 -95402.4 139963.12 -95419.129 139963.9 -95433.014 139963.9 -95466.467 139973.385 -95514.155 139974.987 -95524.459 139981.432 -95581.654 140041.011 -95751.923 140097.293 -95841.494 140116.3 -95907.467 140116.3 -97498.469 140130.357 -97569.135 140141.299 -97624.144 140190.335 -97742.527 140250.811 -97833.037 140261.526 -97849.073 141476.553 -99064.1 141476.556 -99064.102 141476.558 -99064.104 141583.1 -99135.292 141701.483 -99184.328 141701.487 -99184.328 141701.488 -99184.329 141827.155 -99209.327 141827.158 -99209.327 148715.5 -99209.327 148782.539 -99229.012 148828.294 -99281.816 148839.5 -99333.327 148839.5 -105303.619 148819.815 -105370.658 148803.181 -105391.3 147404.873 -106789.608 147343.55 -106823.093 147317.192 -106825.927 134135.875 -106825.927 134068.836 -106806.242 134023.081 -106753.438 134018.834 -106742.882 134012.289 -106724.179 134012.287 -106724.175 133936.722 -106603.914 133916.316 -106571.438 133788.762 -106443.884 133636.023 -106347.911 133465.754 -106288.331 133465.749 -106288.33 133286.504 -106268.135 133286.496 -106268.135 133107.25 -106288.33 133107.245 -106288.331 132936.976 -106347.911 132784.237 -106443.884 132705.759 -106522.363 132644.436 -106555.848 132574.744 -106550.864 132530.397 -106522.363 131643.819 -105635.785 131610.334 -105574.462 131607.5 -105548.104 131607.5 -95272.149 131627.185 -95205.11 131660.377 -95170.574 131751.865 -95106.513 131828.401 -95052.922 131995.495 -94885.828 132125.425 -94700.269 132180.002 -94656.644 132249.5 -94649.45 132311.855 -94680.973 132328.575 -94700.269 132458.501 -94885.823 132458.506 -94885.829 132625.597 -95052.92 132625.603 -95052.925 132793.623 -95170.574 132837.248 -95225.151 132846.5 -95272.149 132846.5 -98280.469 132846.5 -98280.471 132846.499 -98280.471 132868.741 -98392.28 132871.497 -98406.139 132871.498 -98406.143 132871.499 -98406.144 132920.535 -98524.527 132991.723 -98631.069 132991.726 -98631.073 132991.727 -98631.074 140059.377 -105698.723 140092.862 -105760.046 140094.915 -105772.512 140095.73 -105779.746 140095.732 -105779.755 140155.31 -105950.021 140211.279 -106039.094 140251.284 -106102.762 140378.838 -106230.316 140531.578 -106326.289 140701.845 -106385.868 140701.85 -106385.869 140881.096 -106406.065 140881.1 -106406.065 140881.104 -106406.065 141060.349 -106385.869 141060.352 -106385.868 141060.355 -106385.868 141230.622 -106326.289 141383.362 -106230.316 141510.916 -106102.762 141606.889 -105950.022 141666.468 -105779.755 141676.75 -105688.498 141686.665 -105600.503 141686.665 -105600.496 141666.469 -105421.25 141666.468 -105421.245 141606.888 -105250.976 141510.915 -105098.237 141383.362 -104970.684 141230.621 -104874.71 141060.355 -104815.132 141060.346 -104815.13 141053.112 -104814.315 140988.7 -104787.244 140979.323 -104778.777 139526.428 -103325.882 139492.943 -103264.559 139497.927 -103194.867 139539.799 -103138.934 139573.153 -103121.16 139668.522 -103087.789 139821.262 -102991.816 139948.816 -102864.262 140044.789 -102711.522 140104.368 -102541.255 140124.565 -102362 140104.368 -102182.745 140044.789 -102012.478 139948.816 -101859.738 139821.262 -101732.184 139668.524 -101636.212 139668.52 -101636.21 139534.386 -101589.274 139487.66 -101559.914 135975.122 -98047.376 135941.637 -97986.053 135939.582 -97973.573 135938.768 -97966.345 135879.189 -97796.078 135783.216 -97643.338 135655.662 -97515.784 135628.107 -97498.47 135502.923 -97419.811 135332.654 -97360.231 135332.649 -97360.23 135153.404 -97340.035 135153.396 -97340.035 134974.15 -97360.23 134974.145 -97360.231 134803.876 -97419.811 134651.137 -97515.784 134523.584 -97643.337 134427.609 -97796.08 134388.541 -97907.73 134347.82 -97964.506 134282.867 -97990.253 134214.305 -97976.797 134163.903 -97928.409 134147.5 -97866.775 134147.5 -95272.149 134167.185 -95205.11 134200.377 -95170.574 134291.865 -95106.513 134368.401 -95052.922 134535.495 -94885.828 134665.425 -94700.269 134720.002 -94656.644 134789.5 -94649.45 134851.855 -94680.973 134868.575 -94700.269 134998.5 -94885.822 134998.505 -94885.828 135165.599 -95052.922 135242.135 -95106.513 135359.165 -95188.459 135359.167 -95188.46 135359.17 -95188.462 135573.337 -95288.33 135573.343 -95288.331 135573.344 -95288.332 135628.285 -95303.053 135801.592 -95349.49 135972.319 -95364.427 136036.999 -95370.086 136037 -95370.086 136037.001 -95370.086 136101.681 -95364.427 136272.408 -95349.49 136500.663 -95288.33 136714.83 -95188.462 136908.401 -95052.922 137075.495 -94885.828 137211.035 -94692.257 137310.903 -94478.09 137372.063 -94249.835 137392.659 -94014.427 137372.063 -93779.019 137310.903 -93550.764 137211.035 -93336.598 137205.731 -93329.022 137075.494 -93143.024 136908.402 -92975.933 136908.395 -92975.928 136873.508 -92951.5 136831.854 -92922.333 136714.834 -92840.394 136714.83 -92840.392 136643.727 -92807.236 136500.663 -92740.524 136500.659 -92740.523 136500.655 -92740.521 136272.413 -92679.365 136272.403 -92679.363 136037.001 -92658.768 136036.999 -92658.768 135801.596 -92679.363 135801.586 -92679.365 135573.344 -92740.521 135573.335 -92740.525 135359.171 -92840.391 135359.169 -92840.392 135165.597 -92975.932 134998.505 -93143.024 134868.575 -93328.585 134813.998 -93372.21 134744.5 -93379.404 134682.145 -93347.881 134665.425 -93328.585 134535.494 -93143.024 134368.402 -92975.933 134368.395 -92975.928 134333.508 -92951.5 134291.854 -92922.333 134174.834 -92840.394 134174.83 -92840.392 134103.727 -92807.236 133960.663 -92740.524 133960.659 -92740.523 133960.655 -92740.521 133732.413 -92679.365 133732.403 -92679.363 133497.001 -92658.768 133496.999 -92658.768 133261.596 -92679.363 133261.586 -92679.365 133033.344 -92740.521 133033.335 -92740.525 132819.171 -92840.391 132819.169 -92840.392 132625.597 -92975.932 132458.505 -93143.024 132328.575 -93328.585 132273.998 -93372.21 132204.5 -93379.404 132142.145 -93347.881 132125.425 -93328.585 131995.494 -93143.024 131828.402 -92975.933 131828.395 -92975.928 131793.508 -92951.5 131751.854 -92922.333 131634.834 -92840.394 131634.83 -92840.392 131563.727 -92807.236 131420.663 -92740.524 131420.659 -92740.523 131420.655 -92740.521 131192.413 -92679.365 131192.403 -92679.363 130957.001 -92658.768 130956.999 -92658.768 130721.596 -92679.363 130721.586 -92679.365 130493.344 -92740.521 130493.335 -92740.525 130279.171 -92840.391 130279.169 -92840.392 130085.597 -92975.932 129918.505 -93143.024 129788.575 -93328.585 129733.998 -93372.21 129664.5 -93379.404 129602.145 -93347.881 129585.425 -93328.585 129455.494 -93143.024 129288.402 -92975.933 129288.395 -92975.928 129253.508 -92951.5 129211.854 -92922.333 129094.834 -92840.394 129094.83 -92840.392 129023.727 -92807.236 128880.663 -92740.524 128880.659 -92740.523 128880.655 -92740.521 128652.413 -92679.365 128652.403 -92679.363 128417.001 -92658.768 128416.999 -92658.768 128181.596 -92679.363 128181.586 -92679.365 127953.344 -92740.521 127953.335 -92740.525 127739.171 -92840.391 127739.169 -92840.392 127545.597 -92975.932 127378.508 -93143.021 127248.269 -93329.022 127193.692 -93372.646 127124.193 -93379.839 127061.839 -93348.317 127045.119 -93329.021 126915.113 -93143.353 126915.108 -93143.347 126748.082 -92976.321 126554.578 -92840.826 126340.492 -92740.997 126340.486 -92740.994 126127 -92683.791 126127 -93581.415 126069.993 -93548.502 125942.826 -93514.427 125811.174 -93514.427 125684.007 -93548.502 125627 -93581.415 125627 -92683.791 125626.999 -92683.791 125413.513 -92740.994 125413.507 -92740.997 125199.422 -92840.826 125199.42 -92840.827 125005.926 -92976.313 124883.477 -93098.762 124822.154 -93132.246 124752.462 -93127.262 124696.529 -93085.39 124679.614 -93054.413 124630.354 -92922.34 124630.35 -92922.333 124544.19 -92807.239 124544.187 -92807.236 124429.093 -92721.076 124429.086 -92721.072 124294.379 -92670.83 124294.372 -92670.828 124234.844 -92664.427 123587 -92664.427 123587 -93581.415 123529.993 -93548.502 123402.826 -93514.427 123271.174 -93514.427 123144.007 -93548.502 123087 -93581.415 123087 -92664.427 122439.155 -92664.427 122379.627 -92670.828 122379.62 -92670.83 122244.913 -92721.072 122244.906 -92721.076 122129.812 -92807.236 122129.809 -92807.239 122043.649 -92922.333 122043.645 -92922.34 121993.403 -93057.047 121993.401 -93057.054 121987 -93116.582 119179.327 -93116.582 119179.327 -89153.996 120096.015 -89153.996 120096.015 -89154.003 120116.338 -89502.927 120116.339 -89502.938 120177.028 -89847.127 120177.03 -89847.134 120277.274 -90181.972 120415.707 -90502.895 120415.713 -90502.908 120590.47 -90805.597 120799.184 -91085.949 120799.189 -91085.955 120923.063 -91217.253 121039.042 -91340.183 121186.535 -91463.944 121306.786 -91564.847 121306.794 -91564.853 121598.803 -91756.911 121598.807 -91756.913 121911.149 -91913.777 122239.589 -92033.319 122579.686 -92113.923 122926.841 -92154.5 122926.848 -92154.5 123276.352 -92154.5 123276.359 -92154.5 123623.514 -92113.923 123963.611 -92033.319 124292.051 -91913.777 124604.393 -91756.913 124777.291 -91643.196 143466.435 -91643.196 143466.435 -91643.203 143486.63 -91822.449 143486.631 -91822.454 143546.211 -91992.723 143622.366 -92113.922 143642.184 -92145.462 143769.738 -92273.016 143922.478 -92368.989 144092.745 -92428.568 144099.974 -92429.382 144164.388 -92456.446 144173.776 -92464.922 144550.381 -92841.527 144583.866 -92902.85 144586.7 -92929.208 144586.7 -93220.931 144567.694 -93286.903 144511.411 -93376.477 144511.409 -93376.481 144451.833 -93546.737 144451.83 -93546.75 144431.635 -93725.996 144431.635 -93726.003 144451.83 -93905.249 144451.831 -93905.254 144511.411 -94075.523 144575.464 -94177.462 144607.384 -94228.262 144734.938 -94355.816 144887.678 -94451.789 145057.939 -94511.366 145057.945 -94511.368 145057.95 -94511.369 145237.196 -94531.565 145237.2 -94531.565 145237.204 -94531.565 145416.449 -94511.369 145416.451 -94511.368 145416.455 -94511.368 145416.458 -94511.366 145416.462 -94511.366 145511.581 -94478.082 145586.722 -94451.789 145676.296 -94395.505 145742.268 -94376.5 148216.58 -94376.5 148282.552 -94395.506 148291.276 -94400.988 148291.278 -94400.989 148461.545 -94460.568 148461.55 -94460.569 148640.796 -94480.765 148640.8 -94480.765 148640.804 -94480.765 148820.049 -94460.569 148820.052 -94460.568 148820.055 -94460.568 148990.322 -94400.989 149143.062 -94305.016 149270.616 -94177.462 149366.589 -94024.722 149426.168 -93854.455 149434.668 -93779.019 149446.365 -93675.203 149446.365 -93675.196 149426.169 -93495.95 149426.168 -93495.945 149385.541 -93379.839 149366.589 -93325.678 149270.616 -93172.938 149143.062 -93045.384 149075.626 -93003.011 148990.323 -92949.411 148820.054 -92889.831 148820.049 -92889.83 148640.804 -92869.635 148640.796 -92869.635 148461.55 -92889.83 148461.545 -92889.831 148291.276 -92949.411 148138.541 -93045.381 148134.701 -93048.445 148070.015 -93074.855 148057.385 -93075.5 146011.7 -93075.5 145944.661 -93055.815 145898.906 -93003.011 145887.7 -92951.5 145887.7 -92544.328 145862.702 -92418.661 145862.701 -92418.66 145862.701 -92418.656 145813.665 -92300.273 145742.477 -92193.731 145742.475 -92193.729 145742.473 -92193.726 145742.472 -92193.725 145093.722 -91544.976 145060.237 -91483.653 145058.182 -91471.173 145057.368 -91463.945 144997.789 -91293.678 144901.816 -91140.938 144774.262 -91013.384 144621.523 -90917.411 144451.254 -90857.831 144451.249 -90857.83 144272.004 -90837.635 144271.996 -90837.635 144092.75 -90857.83 144092.745 -90857.831 143922.476 -90917.411 143769.737 -91013.384 143642.184 -91140.937 143546.211 -91293.676 143486.631 -91463.945 143486.63 -91463.95 143466.435 -91643.196 124777.291 -91643.196 124896.411 -91564.849 125164.158 -91340.183 125404.012 -91085.953 125612.73 -90805.596 125787.489 -90502.904 125925.926 -90181.971 126026.169 -89847.136 126086.862 -89502.927 126107.185 -89154 126086.862 -88805.073 126085.459 -88797.116 126026.171 -88460.872 126026.169 -88460.865 126026.169 -88460.864 125925.926 -88126.029 125787.489 -87805.096 125612.73 -87502.404 125612.729 -87502.402 125404.015 -87222.05 125404.01 -87222.044 125201.424 -87007.317 125164.158 -86967.817 124942.841 -86782.11 124896.413 -86743.152 124896.405 -86743.146 124604.396 -86551.088 124292.058 -86394.226 124292.052 -86394.223 123963.612 -86274.681 123963.609 -86274.68 123623.515 -86194.077 123580.119 -86189.004 123276.359 -86153.5 122926.841 -86153.5 122623.08 -86189.004 122579.685 -86194.077 122579.683 -86194.077 122239.59 -86274.68 122239.587 -86274.681 121911.147 -86394.223 121911.141 -86394.226 121598.803 -86551.088 121306.794 -86743.146 121306.786 -86743.152 121039.042 -86967.817 121039.04 -86967.819 120799.189 -87222.044 120799.184 -87222.05 120590.47 -87502.402 120415.713 -87805.091 120415.707 -87805.104 120277.274 -88126.027 120177.03 -88460.865 120177.028 -88460.872 120116.339 -88805.061 120116.338 -88805.072 120096.015 -89153.996 119179.327 -89153.996 119179.327 -88797.119 119179.328 -88797.116 119179.327 -88734.273 119179.476 -88728.189 119195.877 -88394.284 119197.07 -88382.182 119235.066 -88126.029 119245.672 -88054.522 119248.045 -88042.594 119307.534 -87805.096 119328.532 -87721.267 119332.053 -87709.655 119443.656 -87397.744 119448.31 -87386.51 119452.993 -87376.61 119589.934 -87087.069 119595.661 -87076.353 119765.967 -86792.213 119772.707 -86782.125 119970.051 -86516.037 119977.754 -86506.652 120200.224 -86261.194 120208.794 -86252.624 120454.252 -86030.154 120463.637 -86022.451 120729.725 -85825.107 120739.813 -85818.367 121023.953 -85648.061 121034.669 -85642.334 121334.118 -85500.706 121345.344 -85496.056 121657.255 -85384.453 121668.867 -85380.932 121990.2 -85300.443 122002.122 -85298.072 122329.79 -85249.469 122341.884 -85248.277 122675.792 -85231.875 122681.873 -85231.727 122744.716 -85231.728 122744.72 -85231.727 152916 -85231.727 152983.039 -85251.412"/></g><g id="tfNUZK8ruMYQE5vgPxoN_bottom_drill1" transform="scale(25.4,25.4)"><use xlink:href="#ov9lRewDB-sHQoy2h0Su_pad-1" x="4932.4" y="-3987.6"/><use xlink:href="#ov9lRewDB-sHQoy2h0Su_pad-1" x="4932.4" y="-4215.1"/><use xlink:href="#ov9lRewDB-sHQoy2h0Su_pad-2" x="6153.9" y="-4539.4"/><use xlink:href="#ov9lRewDB-sHQoy2h0Su_pad-2" x="6154.5" y="-3509.4"/></g><g id="tfNUZK8ruMYQE5vgPxoN_bottom_drill2" transform="scale(25.4,25.4)"><use xlink:href="#vZB5kKfDSQHEKa7cvVjW_pad-1" x="5173.2" y="-4252.8"/><use xlink:href="#vZB5kKfDSQHEKa7cvVjW_pad-1" x="5224" y="-4409"/><use xlink:href="#vZB5kKfDSQHEKa7cvVjW_pad-1" x="5300.3" y="-4406"/><use xlink:href="#vZB5kKfDSQHEKa7cvVjW_pad-1" x="5321" y="-3864"/><use xlink:href="#vZB5kKfDSQHEKa7cvVjW_pad-1" x="5485" y="-4030"/><use xlink:href="#vZB5kKfDSQHEKa7cvVjW_pad-1" x="5500" y="-4469"/><use xlink:href="#vZB5kKfDSQHEKa7cvVjW_pad-1" x="5517.3" y="-4298.3"/><use xlink:href="#vZB5kKfDSQHEKa7cvVjW_pad-1" x="5546.5" y="-4157.5"/><use xlink:href="#vZB5kKfDSQHEKa7cvVjW_pad-2" x="5247.5" y="-4215.5"/><use xlink:href="#vZB5kKfDSQHEKa7cvVjW_pad-2" x="5372.5" y="-4341.4"/><use xlink:href="#vZB5kKfDSQHEKa7cvVjW_pad-2" x="5542" y="-3756"/><use xlink:href="#vZB5kKfDSQHEKa7cvVjW_pad-2" x="5574.5" y="-4465.4"/><use xlink:href="#vZB5kKfDSQHEKa7cvVjW_pad-2" x="5652.1" y="-4068.9"/><use xlink:href="#vZB5kKfDSQHEKa7cvVjW_pad-2" x="5652.1" y="-4135.9"/><use xlink:href="#vZB5kKfDSQHEKa7cvVjW_pad-2" x="5680" y="-3608"/><use xlink:href="#vZB5kKfDSQHEKa7cvVjW_pad-2" x="5683.6" y="-4037.4"/><use xlink:href="#vZB5kKfDSQHEKa7cvVjW_pad-2" x="5683.6" y="-4100.4"/><use xlink:href="#vZB5kKfDSQHEKa7cvVjW_pad-2" x="5683.6" y="-4167.4"/><use xlink:href="#vZB5kKfDSQHEKa7cvVjW_pad-2" x="5718" y="-3690"/><use xlink:href="#vZB5kKfDSQHEKa7cvVjW_pad-2" x="5719" y="-4068.9"/><use xlink:href="#vZB5kKfDSQHEKa7cvVjW_pad-2" x="5719" y="-4135.9"/><use xlink:href="#vZB5kKfDSQHEKa7cvVjW_pad-2" x="5732.5" y="-4537.4"/><use xlink:href="#vZB5kKfDSQHEKa7cvVjW_pad-2" x="5750.5" y="-4037.4"/><use xlink:href="#vZB5kKfDSQHEKa7cvVjW_pad-2" x="5750.5" y="-4104.4"/><use xlink:href="#vZB5kKfDSQHEKa7cvVjW_pad-2" x="5750.5" y="-4167.4"/><use xlink:href="#vZB5kKfDSQHEKa7cvVjW_pad-2" x="5766" y="-3608"/><use xlink:href="#vZB5kKfDSQHEKa7cvVjW_pad-2" x="5782" y="-4068.9"/><use xlink:href="#vZB5kKfDSQHEKa7cvVjW_pad-2" x="5782" y="-4135.9"/><use xlink:href="#vZB5kKfDSQHEKa7cvVjW_pad-2" x="5822.5" y="-4475.4"/><use xlink:href="#vZB5kKfDSQHEKa7cvVjW_pad-2" x="5852" y="-3688"/><use xlink:href="#vZB5kKfDSQHEKa7cvVjW_pad-2" x="5885.4" y="-3880.3"/><use xlink:href="#vZB5kKfDSQHEKa7cvVjW_pad-2" x="5900.5" y="-4475.4"/><use xlink:href="#vZB5kKfDSQHEKa7cvVjW_pad-4" x="4855.8" y="-3701.4"/><use xlink:href="#vZB5kKfDSQHEKa7cvVjW_pad-4" x="4855.8" y="-4501.4"/><use xlink:href="#vZB5kKfDSQHEKa7cvVjW_pad-4" x="4955.8" y="-3701.4"/><use xlink:href="#vZB5kKfDSQHEKa7cvVjW_pad-4" x="4955.8" y="-4501.4"/><use xlink:href="#vZB5kKfDSQHEKa7cvVjW_pad-4" x="5055.8" y="-3701.4"/><use xlink:href="#vZB5kKfDSQHEKa7cvVjW_pad-4" x="5055.8" y="-4501.4"/><use xlink:href="#vZB5kKfDSQHEKa7cvVjW_pad-4" x="5155.8" y="-3701.4"/><use xlink:href="#vZB5kKfDSQHEKa7cvVjW_pad-4" x="5155.8" y="-4501.4"/><use xlink:href="#vZB5kKfDSQHEKa7cvVjW_pad-4" x="5255.8" y="-3701.4"/><use xlink:href="#vZB5kKfDSQHEKa7cvVjW_pad-4" x="5255.8" y="-4501.4"/><use xlink:href="#vZB5kKfDSQHEKa7cvVjW_pad-4" x="5355.8" y="-3701.4"/><use xlink:href="#vZB5kKfDSQHEKa7cvVjW_pad-4" x="5355.8" y="-4501.4"/><use xlink:href="#vZB5kKfDSQHEKa7cvVjW_pad-5" x="109.3" y="-109.3"/><use xlink:href="#vZB5kKfDSQHEKa7cvVjW_pad-5" x="109.3" y="-367.1"/><use xlink:href="#vZB5kKfDSQHEKa7cvVjW_pad-5" x="4846.5" y="-3510"/><path d="M 4803.3 -3931.3 4771.8 -3931.3 M 4803.3 -4271.4 4771.8 -4271.4 M 4973.7 -3931.3 4930.4 -3931.3 M 4973.7 -4271.4 4930.4 -4271.4" fill="none" stroke-width="23.6"/></g><clipPath id="tfNUZK8ruMYQE5vgPxoN_bottom_outline"><path d="M 156731.2 -84731.227 A 3999.973 3999.973 0 0 0 160731.2 -88731.227 L 160731.2 -115722.4 A 4000 4000 0 0 0 156731.2 -119722.4 L 122678.827 -119722.4 A 4000.0000001 4000.0000001 0 0 0 118678.827 -115722.4 L 118678.827 -88731.227 A 3999.9730001 3999.9730001 0 0 0 122678.827 -84731.227 L 156731.2 -84731.227" fill="none" stroke-width="50"/></clipPath><mask id="tfNUZK8ruMYQE5vgPxoN_bottom_mech-mask"><g fill="#000" stroke="#000"><rect x="118678.8" y="-119722.4000001" width="42052.4" height="34991.1730002" fill="#fff"/><use xlink:href="#tfNUZK8ruMYQE5vgPxoN_bottom_drill1"/><use xlink:href="#tfNUZK8ruMYQE5vgPxoN_bottom_drill2"/></g></mask><mask id="tfNUZK8ruMYQE5vgPxoN_bottom_cf-mask"><g fill="#fff" stroke="#fff"><use xlink:href="#tfNUZK8ruMYQE5vgPxoN_bottom_soldermask"/></g></mask><mask id="tfNUZK8ruMYQE5vgPxoN_bottom_sm-mask"><g fill="#000" stroke="#000"><rect x="118678.8" y="-119722.4000001" width="42052.4" height="34991.1730002" fill="#fff"/><use xlink:href="#tfNUZK8ruMYQE5vgPxoN_bottom_soldermask"/></g></mask></defs><g transform="translate(0,-204453.62699999998) scale(1,-1)"><g mask="url(#tfNUZK8ruMYQE5vgPxoN_bottom_mech-mask)" clip-path="url(#tfNUZK8ruMYQE5vgPxoN_bottom_outline)" transform="translate(279410,0) scale(-1,1)"><rect x="118678.8" y="-119722.4000001" width="42052.4" height="34991.1730002" fill="currentColor" class="tfNUZK8ruMYQE5vgPxoN_fr4"/><use xlink:href="#tfNUZK8ruMYQE5vgPxoN_bottom_copper" fill="currentColor" stroke="currentColor" class="tfNUZK8ruMYQE5vgPxoN_cu"/><use xlink:href="#tfNUZK8ruMYQE5vgPxoN_bottom_copper" fill="currentColor" stroke="currentColor" class="tfNUZK8ruMYQE5vgPxoN_cf" mask="url(#tfNUZK8ruMYQE5vgPxoN_bottom_cf-mask)"/><g mask="url(#tfNUZK8ruMYQE5vgPxoN_bottom_sm-mask)"><rect x="118678.8" y="-119722.4000001" width="42052.4" height="34991.1730002" fill="currentColor" class="tfNUZK8ruMYQE5vgPxoN_sm"/></g></g></g></svg>